<svg width="200" height="200" viewBox="0 0 200 200" fill="none" xmlns="http://www.w3.org/2000/svg">
  <rect width="200" height="200" fill="#F5F5F5"/>
  <path d="M100 50C90 50 82 54 76 62C70 70 67 80 67 92C67 104 70 114 76 122C82 130 90 134 100 134C110 134 118 130 124 122C130 114 133 104 133 92C133 80 130 70 124 62C118 54 110 50 100 50ZM100 122C92 122 86 118 82 112C78 106 75 98 75 92C75 86 78 78 82 72C86 66 92 62 100 62C108 62 114 66 118 72C122 78 125 86 125 92C125 98 122 106 118 112C114 118 108 122 100 122Z" fill="#2196F3"/>
  <path d="M100 74C94 74 90 77 87 82C84 87 83 93 83 100C83 107 84 113 87 118C90 123 94 126 100 126C106 126 110 123 113 118C116 113 117 107 117 100C117 93 116 87 113 82C110 77 106 74 100 74ZM100 114C96 114 93 111 91 108C89 105 88 100 88 96C88 92 89 87 91 84C93 81 96 78 100 78C104 78 107 81 109 84C111 87 112 92 112 96C112 100 111 105 109 108C107 111 104 114 100 114Z" fill="#2196F3"/>
  <circle cx="100" cy="100" r="40" stroke="#2196F3" stroke-width="4"/>
</svg>