<svg width="32" height="32" viewBox="0 0 32 32" fill="none" xmlns="http://www.w3.org/2000/svg">
  <path d="M16 4C13.2 4 10.8 5.2 9.2 7.2C7.6 9.2 6.8 11.6 6.8 14.4C6.8 17.2 7.6 19.6 9.2 21.6C10.8 23.6 13.2 24.8 16 24.8C18.8 24.8 21.2 23.6 22.8 21.6C24.4 19.6 25.2 17.2 25.2 14.4C25.2 11.6 24.4 9.2 22.8 7.2C21.2 5.2 18.8 4 16 4ZM16 22.4C13.6 22.4 11.6 21.2 10.4 19.6C9.2 18 8.4 16 8.4 14.4C8.4 12.8 9.2 10.8 10.4 9.2C11.6 7.6 13.6 6.4 16 6.4C18.4 6.4 20.4 7.6 21.6 9.2C22.8 10.8 23.6 12.8 23.6 14.4C23.6 16 22.8 18 21.6 19.6C20.4 21.2 18.4 22.4 16 22.4Z" fill="#2196F3"/>
  <path d="M16 8.8C14.4 8.8 13.2 9.6 12.4 10.8C11.6 12 11.2 13.6 11.2 15.2C11.2 16.8 11.6 18.4 12.4 19.6C13.2 20.8 14.4 21.6 16 21.6C17.6 21.6 18.8 20.8 19.6 19.6C20.4 18.4 20.8 16.8 20.8 15.2C20.8 13.6 20.4 12 19.6 10.8C18.8 9.6 17.6 8.8 16 8.8ZM16 19.2C14.8 19.2 14 18.4 13.6 17.6C13.2 16.8 12.8 15.6 12.8 14.4C12.8 13.2 13.2 12 13.6 11.2C14 10.4 14.8 9.6 16 9.6C17.2 9.6 18 10.4 18.4 11.2C18.8 12 19.2 13.2 19.2 14.4C19.2 15.6 18.8 16.8 18.4 17.6C18 18.4 17.2 19.2 16 19.2Z" fill="#2196F3"/>
</svg>